<svg width="1258" height="362" viewBox="0 0 1258 362" fill="none" xmlns="http://www.w3.org/2000/svg">
<rect x="723.92" y="39.8867" width="431.949" height="250.801" fill="white"/>
<path d="M94.6335 253.467H73.1124V187.173C73.1124 176.814 71.3436 169.119 67.5111 164.088C63.6786 159.057 58.0772 156.689 49.8226 156.689C40.6835 156.689 33.6081 160.241 28.8912 167.64C23.8794 175.038 21.521 185.397 21.521 199.307V253.171H0V141.3H21.521V156.985C24.7639 150.474 29.4808 145.739 35.6718 142.187C41.568 138.932 48.9382 137.156 57.4876 137.156C68.9852 137.156 78.1242 141.004 84.61 148.698C91.0958 156.393 94.6335 167.344 94.6335 181.254V253.467Z" fill="white"/>
<path d="M225.532 253.465H204.011V236.003C200.473 243.106 195.461 248.433 189.27 251.985C183.079 255.536 175.414 257.312 166.57 257.312C151.24 257.312 138.563 251.689 129.129 240.443C119.401 229.196 114.684 214.694 114.684 196.641C114.684 179.18 119.401 164.678 129.129 154.024C138.858 143.073 151.535 137.746 167.16 137.746C175.414 137.746 182.784 139.522 188.975 142.777C195.166 146.033 200.178 151.064 204.305 157.575V141.594H225.826V253.465H225.532ZM204.011 196.345C204.011 184.507 201.062 175.036 194.871 168.525C188.68 161.718 180.426 158.463 170.108 158.463C159.789 158.463 151.535 162.014 145.344 168.821C139.153 175.924 135.91 185.099 135.91 197.233C135.91 209.367 138.858 218.838 145.049 225.941C151.24 233.044 159.2 236.891 169.223 236.891C179.541 236.891 187.796 233.044 194.282 225.645C200.768 218.246 204.011 208.479 204.011 196.345Z" fill="white"/>
<path d="M296.578 160.83H277.415V253.76H255.894V160.83H244.102V141.888H255.894V97.1992H277.415V141.888H296.578V160.83Z" fill="white"/>
<path d="M341.093 96.323C341.093 100.17 339.619 103.722 336.965 106.385C334.312 109.049 330.774 110.529 326.942 110.529C323.109 110.529 319.572 109.049 316.918 106.385C314.265 103.722 312.791 100.17 312.791 96.323C312.791 92.4756 314.265 89.2201 316.918 86.2605C319.572 83.5969 323.109 82.1172 326.942 82.1172C330.774 82.1172 334.312 83.5969 336.965 86.2605C339.619 89.2201 341.093 92.4756 341.093 96.323ZM337.555 253.475H316.034V141.604H337.555V253.475Z" fill="white"/>
<path d="M459.013 141.598L405.063 258.796L350.818 141.598H374.993L405.063 212.627L434.544 141.598H459.013Z" fill="white"/>
<path d="M563.68 201.689H478.775C479.659 213.231 482.902 221.814 488.504 227.733C494.105 233.652 502.065 236.612 511.793 236.612C519.458 236.612 525.649 235.132 530.661 232.173C535.673 229.213 539.8 224.478 542.748 218.263L560.732 227.733C555.72 237.5 548.939 244.899 540.979 249.634C533.02 254.369 523.291 256.737 511.793 256.737C494.989 256.737 482.018 251.114 471.994 240.163C462.266 229.213 457.254 214.415 457.254 196.066C457.254 178.901 462.266 164.991 472.584 153.744C482.902 142.498 495.579 136.875 510.909 136.875C526.534 136.875 539.211 141.906 548.939 152.265C558.668 162.623 563.385 175.941 563.385 192.811V201.689H563.68ZM542.454 186.891C541.569 177.717 538.326 170.614 533.02 165.583C527.713 160.847 520.343 158.184 511.204 158.184C502.36 158.184 495.284 160.551 489.388 165.583C483.787 170.614 480.249 177.717 479.07 186.595H542.454V186.891Z" fill="white"/>
<path d="M873.52 157.578C862.906 157.578 854.357 161.13 847.871 168.233C841.386 175.335 838.143 185.102 838.143 197.532C838.143 209.962 841.386 219.729 847.576 227.424C853.767 234.822 862.317 238.67 872.635 238.67C883.248 238.67 891.798 234.822 898.283 227.128C904.769 219.433 908.307 209.37 908.307 196.94C908.307 184.51 905.064 175.039 898.873 167.937C892.977 161.13 884.427 157.578 873.52 157.578Z" fill="#3EBF0F"/>
<path d="M1236.43 86.5505C1204 29.7271 1153.88 0.427491 1088.14 0.131536C981.121 -0.16442 873.811 0.131536 766.796 0.131536C735.841 0.131536 706.655 7.23447 680.711 24.6958C633.837 56.3631 610.252 101.052 609.957 157.876C609.957 217.955 609.957 278.034 609.957 338.408C609.957 344.328 609.368 350.247 609.663 356.166C609.957 362.085 612.611 363.565 617.622 360.309C625.288 355.574 632.658 350.247 640.323 346.103C648.872 341.368 656.537 334.857 667.74 334.857C739.378 335.153 811.017 335.153 882.655 335.153C950.756 335.153 1018.86 335.153 1086.96 335.153C1112.31 335.153 1136.78 330.418 1160.07 319.763C1204.29 299.046 1234.36 265.012 1249.4 218.547C1264.14 172.969 1260.01 127.984 1236.43 86.5505ZM811.901 159.947H792.149V255.837H770.038V159.947H757.656V140.414H770.038V94.2454H792.149V140.414H811.901V159.947ZM930.709 255.837H908.598V237.784C904.766 245.183 899.754 250.51 893.268 254.357C886.783 257.909 879.118 259.98 869.978 259.98C854.059 259.98 841.087 254.061 831.064 242.519C821.04 230.977 816.028 215.883 816.028 197.534C816.028 179.48 821.04 164.683 831.064 153.436C841.087 142.19 854.059 136.567 870.273 136.567C878.823 136.567 886.193 138.343 892.679 141.598C899.164 145.15 904.471 150.181 908.598 156.988V140.414H930.709V255.837V255.837ZM984.364 255.837H962.253V52.2197H984.364V255.837ZM1088.14 255.837L1040.67 194.87V255.837H1018.56V52.2197H1040.67V191.911L1084.6 140.414H1110.54L1063.67 192.206L1114.67 255.837H1088.14Z" fill="#3EBF0F"/>
</svg>
